<svg class="main-svg" xmlns="http://www.w3.org/2000/svg" xmlns:xlink="http://www.w3.org/1999/xlink" width="750" height="500" style="" viewBox="0 0 750 500"><rect x="0" y="0" width="750" height="500" style="fill: rgb(255, 255, 255); fill-opacity: 1;"/><defs id="defs-af6c8e"><g class="clips"><clipPath id="clipaf6c8exyplot" class="plotclip"><rect width="590" height="120"/></clipPath><clipPath id="clipaf6c8ex2y2plot" class="plotclip"><rect width="590" height="120"/></clipPath><clipPath class="axesclip" id="clipaf6c8ex"><rect x="80" y="0" width="590" height="500"/></clipPath><clipPath class="axesclip" id="clipaf6c8ey"><rect x="0" y="100" width="750" height="120"/></clipPath><clipPath class="axesclip" id="clipaf6c8exy"><rect x="80" y="100" width="590" height="120"/></clipPath><clipPath class="axesclip" id="clipaf6c8ey2"><rect x="0" y="300" width="750" height="120"/></clipPath><clipPath class="axesclip" id="clipaf6c8exy2"><rect x="80" y="300" width="590" height="120"/></clipPath><clipPath class="axesclip" id="clipaf6c8ex2"><rect x="80" y="0" width="590" height="500"/></clipPath><clipPath class="axesclip" id="clipaf6c8ex2y"><rect x="80" y="100" width="590" height="120"/></clipPath><clipPath class="axesclip" id="clipaf6c8ex2y2"><rect x="80" y="300" width="590" height="120"/></clipPath></g><g class="gradients"/><g class="patterns"/></defs><g class="bglayer"/><g class="layer-below"><g class="imagelayer"/><g class="shapelayer"/></g><g class="cartesianlayer"><g class="subplot xy"><g class="layer-subplot"><g class="shapelayer"/><g class="imagelayer"/></g><g class="gridlayer"><g class="x"><path class="xgrid crisp" transform="translate(148.07999999999998,0)" d="M0,100v120" style="stroke: rgb(238, 238, 238); stroke-opacity: 1; stroke-width: 1px;"/><path class="xgrid crisp" transform="translate(294.7,0)" d="M0,100v120" style="stroke: rgb(238, 238, 238); stroke-opacity: 1; stroke-width: 1px;"/><path class="xgrid crisp" transform="translate(441.33,0)" d="M0,100v120" style="stroke: rgb(238, 238, 238); stroke-opacity: 1; stroke-width: 1px;"/><path class="xgrid crisp" transform="translate(587.96,0)" d="M0,100v120" style="stroke: rgb(238, 238, 238); stroke-opacity: 1; stroke-width: 1px;"/></g><g class="y"><path class="ygrid crisp" transform="translate(0,182.43)" d="M80,0h590" style="stroke: rgb(238, 238, 238); stroke-opacity: 1; stroke-width: 1px;"/><path class="ygrid crisp" transform="translate(0,149.2)" d="M80,0h590" style="stroke: rgb(238, 238, 238); stroke-opacity: 1; stroke-width: 1px;"/><path class="ygrid crisp" transform="translate(0,115.97)" d="M80,0h590" style="stroke: rgb(238, 238, 238); stroke-opacity: 1; stroke-width: 1px;"/></g></g><g class="zerolinelayer"><path class="yzl zl crisp" transform="translate(0,215.66)" d="M80,0h590" style="stroke: rgb(68, 68, 68); stroke-opacity: 1; stroke-width: 1px;"/></g><path class="xlines-below"/><path class="ylines-below"/><g class="overlines-below"/><g class="xaxislayer-below"/><g class="yaxislayer-below"/><g class="overaxes-below"/><g class="plot" transform="translate(80,100)" clip-path="url(#clipaf6c8exyplot)"><g class="scatterlayer mlayer"><g class="trace scatter trace983c54" style="stroke-miterlimit: 2; opacity: 1;"><g class="fills"/><g class="errorbars"/><g class="lines"><path class="js-line" d="M0,92.4L0.87,87.42L1.75,64.15L2.62,49.2L3.49,85.75L4.36,87.42L5.24,74.12L6.11,75.78L6.98,104.03L7.86,87.42L8.73,112.34L9.6,107.35L10.47,112.34L11.35,112.34L12.22,99.05L13.09,59.17L13.96,75.78L14.84,59.17L15.71,65.82L16.58,84.09L17.46,85.75L18.33,94.06L19.2,92.4L20.07,87.42L20.95,75.78L21.82,17.63L22.69,44.22L23.57,82.43L24.44,80.77L25.31,70.8L26.18,70.8L27.93,104.03L28.8,109.02L29.67,112.34L30.55,105.69L31.42,104.03L32.29,95.72L33.17,104.03L34.04,84.09L34.91,87.42L35.78,74.12L36.66,87.42L37.53,80.77L38.4,50.86L39.28,80.77L40.15,35.91L41.02,69.14L41.89,72.46L42.77,99.05L43.64,85.75L44.51,92.4L45.38,82.43L46.26,90.74L47.13,74.12L48,97.38L49.75,105.69L50.62,109.02L51.49,110.68L52.37,114L53.24,112.34L54.11,94.06L55.86,79.11L56.73,80.77L58.48,59.17L59.35,95.72L61.09,80.77L61.97,72.46L62.84,60.83L63.71,90.74L64.59,85.75L65.46,44.22L66.33,99.05L67.2,82.43L68.08,75.78L68.95,54.18L70.7,105.69L71.57,110.68L72.44,109.02L73.31,114L74.19,114L75.06,109.02L75.93,104.03L76.8,72.46L77.68,75.78L78.55,85.75L79.42,65.82L80.3,67.48L81.17,72.46L82.04,85.75L82.91,80.77L83.79,97.38L84.66,94.06L85.53,72.46L86.41,77.45L87.28,70.8L88.15,65.82L89.02,52.52L91.64,114L92.51,112.34L93.39,114L94.26,114L95.13,112.34L96.01,105.69L96.88,87.42L97.75,85.75L98.62,72.46L99.5,77.45L100.37,80.77L101.24,79.11L102.12,79.11L102.99,85.75L103.86,65.82L104.73,74.12L105.61,89.08L106.48,65.82L107.35,94.06L108.22,45.88L109.97,75.78L110.84,100.71L111.72,100.71L112.59,110.68L113.46,107.35L114.33,109.02L115.21,109.02" style="vector-effect: non-scaling-stroke; fill: none; stroke: rgb(31, 119, 180); stroke-opacity: 1; stroke-width: 2px; opacity: 1;"/><path class="js-line" d="M116.95,105.69L119.57,85.75L120.44,67.48L122.19,92.4L123.06,84.09L124.81,92.4L125.68,67.48L126.55,87.42L127.43,82.43L128.3,94.06L129.17,90.74L130.92,74.12L131.79,25.94L132.66,90.74L133.54,99.05L134.41,110.68L135.28,110.68L136.15,109.02L137.03,95.72L137.9,87.42L138.77,89.08L139.64,89.08L140.52,87.42L141.39,62.49L142.26,65.82L143.14,49.2L144.01,82.43L144.88,55.85L145.75,74.12L146.63,69.14L147.5,70.8L149.25,64.15L150.12,35.91L151.86,94.06L152.74,97.38L153.61,99.05L154.48,109.02L155.36,105.69L156.23,112.34" style="vector-effect: non-scaling-stroke; fill: none; stroke: rgb(31, 119, 180); stroke-opacity: 1; stroke-width: 2px; opacity: 1;"/><path class="js-line" d="M157.97,112.34L159.72,94.06L160.59,84.09L161.46,94.06L162.34,80.77L164.08,39.23L164.96,40.89L165.83,49.2L166.7,45.88L167.57,54.18L168.45,6L169.32,47.54L170.19,44.22L171.07,50.86L171.94,47.54L172.81,34.25L173.68,65.82L174.56,99.05L175.43,100.71L176.3,112.34L177.17,107.35L178.05,109.02L178.92,102.37L179.79,87.42L180.67,89.08L181.54,70.8L182.41,80.77L183.28,79.11L184.16,84.09L185.03,80.77L185.9,99.05L187.65,67.48L188.52,69.14L190.27,90.74L191.14,87.42L192.88,99.05L193.76,85.75L194.63,99.05L195.5,100.71L196.38,109.02L197.25,102.37L198.12,112.34L198.99,110.68L199.87,112.34L200.74,102.37L202.49,92.4L203.36,100.71L204.23,100.71L205.1,92.4L205.98,99.05L206.85,95.72L207.72,77.45L208.59,79.11L209.47,77.45L210.34,97.38L211.21,110.68L212.09,62.49L214.7,90.74L215.58,89.08L216.45,97.38L217.32,90.74L219.07,114L219.94,112.34" style="vector-effect: non-scaling-stroke; fill: none; stroke: rgb(31, 119, 180); stroke-opacity: 1; stroke-width: 2px; opacity: 1;"/><path class="js-line" d="M222.56,107.35L224.3,95.72L225.18,97.38L226.92,69.14L227.8,77.45L228.67,80.77L229.54,74.12L230.41,70.8L231.29,85.75L232.16,79.11L233.03,87.42L234.78,87.42L235.65,77.45L236.52,90.74L237.4,89.08L238.27,109.02L239.14,110.68L240.01,112.34L240.89,110.68L241.76,97.38L242.63,99.05L243.51,97.38L244.38,92.4L245.25,80.77L246.12,94.06L247.87,60.83L248.74,79.11L249.62,45.88L250.49,62.49L251.36,77.45L252.23,69.14L253.11,74.12L253.98,57.51L254.85,44.22L255.72,54.18L257.47,87.42L258.34,92.4L260.09,112.34L260.96,110.68L261.83,114L262.71,109.02L263.58,99.05L264.45,77.45L266.2,94.06L267.07,64.15L267.94,95.72L268.82,72.46L269.69,75.78L270.56,72.46L271.43,54.18L272.31,67.48L273.18,74.12L274.05,67.48L274.93,59.17L275.8,79.11L277.54,52.52L278.42,77.45L279.29,107.35L280.16,97.38L281.04,114L281.91,112.34L282.78,110.68L283.65,102.37L284.53,107.35L285.4,77.45L286.27,92.4L287.14,94.06L288.89,70.8L289.76,79.11L290.64,87.42L291.51,80.77L292.38,55.85L293.25,65.82L294.13,70.8L295,84.09L295.87,74.12L296.75,85.75L298.49,72.46L299.36,92.4L300.24,100.71L301.11,92.4L301.98,102.37" style="vector-effect: non-scaling-stroke; fill: none; stroke: rgb(31, 119, 180); stroke-opacity: 1; stroke-width: 2px; opacity: 1;"/><path class="js-line" d="M303.73,105.69L304.6,107.35L305.47,100.71L306.35,90.74L307.22,60.83L308.09,80.77L308.96,70.8L309.84,74.12L310.71,82.43L311.58,67.48L312.46,89.08L313.33,99.05L314.2,74.12L315.07,74.12L315.95,92.4L316.82,49.2L317.69,77.45L318.57,62.49L319.44,77.45L321.18,102.37L322.06,104.03L322.93,114L323.8,107.35L324.67,114L325.55,114L326.42,109.02L327.29,99.05L328.17,99.05L329.04,89.08L331.66,64.15L332.53,65.82L333.4,80.77L334.28,72.46L335.15,95.72L336.02,59.17L336.89,27.6L337.77,52.52L338.64,54.18L339.51,69.14L340.38,102.37L341.26,87.42L342.13,70.8L343,99.05L343.88,110.68L344.75,99.05L345.62,84.09L346.49,109.02L347.37,102.37L348.24,87.42L349.11,85.75L349.99,97.38L351.73,84.09L352.6,64.15L353.48,100.71L354.35,92.4L355.22,92.4L356.09,57.51L356.97,54.18L357.84,64.15L360.46,87.42L361.33,85.75L362.2,105.69L363.08,95.72L363.95,92.4L364.82,110.68L365.7,112.34L366.57,105.69L367.44,109.02L368.31,102.37L369.19,72.46L370.06,74.12L370.93,70.8L371.8,70.8L372.68,62.49L373.55,80.77L375.3,72.46L376.17,87.42L377.91,67.48L378.79,70.8L379.66,60.83L380.53,79.11L381.41,94.06L382.28,64.15L383.15,70.8L384.02,87.42L385.77,107.35L386.64,110.68L387.51,105.69L388.39,109.02L389.26,92.4L390.13,99.05L391.01,95.72L391.88,69.14L392.75,82.43L393.62,80.77L394.5,82.43L395.37,90.74L396.24,79.11L397.12,99.05L397.99,60.83L398.86,90.74L399.73,59.17L400.61,55.85L401.48,60.83L402.35,92.4L403.22,107.35L404.1,104.03L404.97,94.06L405.84,107.35L406.72,110.68L407.59,110.68L408.46,105.69L409.33,107.35L410.21,107.35L411.08,104.03L411.95,99.05L412.83,87.42L413.7,89.08L414.57,84.09L415.44,80.77L416.32,99.05L417.19,72.46L418.06,84.09L418.93,70.8L419.81,90.74L420.68,82.43L421.55,65.82L422.43,50.86L423.3,72.46L424.17,60.83L425.04,80.77L425.92,102.37L426.79,104.03L427.66,114L428.54,114L429.41,107.35" style="vector-effect: non-scaling-stroke; fill: none; stroke: rgb(31, 119, 180); stroke-opacity: 1; stroke-width: 2px; opacity: 1;"/><path class="js-line" d="M431.15,80.77L432.03,85.75L432.9,60.83L433.77,70.8L434.64,69.14L435.52,74.12L436.39,55.85L437.26,87.42L438.14,75.78L439.01,70.8L439.88,47.54L440.75,54.18L441.63,45.88L442.5,45.88L443.37,35.91L445.12,75.78L445.99,80.77L447.74,99.05L448.61,107.35L449.48,110.68L450.36,107.35L451.23,104.03L452.1,92.4L452.97,77.45L453.85,85.75L454.72,84.09L455.59,100.71L457.34,42.55L458.21,52.52L459.08,9.32L459.96,45.88L460.83,40.89L461.7,62.49L462.57,62.49L463.45,45.88L465.19,75.78L466.07,79.11L467.81,105.69L468.68,100.71L469.56,95.72L470.43,112.34L471.3,110.68L472.17,90.74L473.05,77.45L473.92,90.74L474.79,75.78L475.67,47.54L476.54,32.58L477.41,45.88L478.28,85.75L479.16,57.51L480.03,44.22L480.9,54.18L482.65,82.43L483.52,92.4L484.39,100.71L485.27,87.42L486.14,90.74L487.01,77.45L487.88,99.05L488.76,92.4L489.63,112.34L490.5,114L491.38,114L492.25,109.02L493.12,107.35L493.99,102.37L495.74,90.74L496.61,92.4L497.49,90.74L498.36,74.12L499.23,99.05L500.1,72.46L500.98,82.43L501.85,82.43L502.72,74.12L503.59,84.09L504.47,69.14L505.34,95.72L506.21,105.69L507.09,99.05L508.83,69.14L509.7,60.83L510.58,107.35L511.45,99.05L513.2,110.68L514.07,112.34L514.94,104.03L515.81,87.42L516.69,85.75L517.56,77.45L518.43,87.42L519.3,75.78L520.18,79.11L521.05,70.8L521.92,55.85L522.8,82.43L523.67,77.45L524.54,62.49L525.41,59.17L526.29,92.4L528.03,67.48L528.91,85.75L529.78,92.4L530.65,107.35L531.52,109.02L532.4,109.02L533.27,114L534.14,114L535.01,112.34L535.89,112.34L536.76,107.35L537.63,97.38L538.51,90.74L539.38,64.15L540.25,50.86L541.12,60.83L542.87,87.42L543.74,52.52L544.62,82.43L545.49,44.22L548.11,74.12L548.98,80.77L549.85,79.11L550.72,102.37L551.6,104.03L552.47,99.05L554.22,114L555.09,110.68L556.83,99.05L557.71,105.69L558.58,82.43L559.45,95.72L560.33,80.77L561.2,80.77L562.94,59.17L563.82,74.12L564.69,79.11L565.56,69.14L566.43,80.77L567.31,65.82L568.18,74.12L569.05,50.86L569.93,62.49L570.8,57.51L573.42,97.38L574.29,104.03L575.16,110.68L576.04,102.37L576.91,99.05L577.78,99.05L579.53,72.46L580.4,79.11L581.27,79.11L582.14,49.2L583.02,80.77L583.89,79.11L584.76,75.78L585.64,59.17L586.51,59.17L587.38,67.48L588.25,65.82L589.13,82.43L590,77.45" style="vector-effect: non-scaling-stroke; fill: none; stroke: rgb(31, 119, 180); stroke-opacity: 1; stroke-width: 2px; opacity: 1;"/></g><g class="points"/><g class="text"/></g></g></g><g class="overplot"/><path class="xlines-above crisp" d="M0,0" style="fill: none;"/><path class="ylines-above crisp" d="M0,0" style="fill: none;"/><g class="overlines-above"/><g class="xaxislayer-above"><g class="xtick"><text text-anchor="middle" x="0" y="233" transform="translate(148.07999999999998,0)" style="font-family: 'Open Sans', verdana, arial, sans-serif; font-size: 12px; fill: rgb(68, 68, 68); fill-opacity: 1; white-space: pre; opacity: 1;"><tspan class="line" dy="0em" x="0" y="233">Mar 27</tspan><tspan class="line" dy="1.3em" x="0" y="233">2022</tspan></text></g><g class="xtick"><text text-anchor="middle" x="0" y="233" style="font-family: 'Open Sans', verdana, arial, sans-serif; font-size: 12px; fill: rgb(68, 68, 68); fill-opacity: 1; white-space: pre; opacity: 1;" transform="translate(294.7,0)">Apr 3</text></g><g class="xtick"><text text-anchor="middle" x="0" y="233" style="font-family: 'Open Sans', verdana, arial, sans-serif; font-size: 12px; fill: rgb(68, 68, 68); fill-opacity: 1; white-space: pre; opacity: 1;" transform="translate(441.33,0)">Apr 10</text></g><g class="xtick"><text text-anchor="middle" x="0" y="233" style="font-family: 'Open Sans', verdana, arial, sans-serif; font-size: 12px; fill: rgb(68, 68, 68); fill-opacity: 1; white-space: pre; opacity: 1;" transform="translate(587.96,0)">Apr 17</text></g></g><g class="yaxislayer-above"><g class="ytick"><text text-anchor="end" x="79" y="4.199999999999999" transform="translate(0,215.66)" style="font-family: 'Open Sans', verdana, arial, sans-serif; font-size: 12px; fill: rgb(68, 68, 68); fill-opacity: 1; white-space: pre; opacity: 1;">0</text></g><g class="ytick"><text text-anchor="end" x="79" y="4.199999999999999" style="font-family: 'Open Sans', verdana, arial, sans-serif; font-size: 12px; fill: rgb(68, 68, 68); fill-opacity: 1; white-space: pre; opacity: 1;" transform="translate(0,182.43)">20</text></g><g class="ytick"><text text-anchor="end" x="79" y="4.199999999999999" style="font-family: 'Open Sans', verdana, arial, sans-serif; font-size: 12px; fill: rgb(68, 68, 68); fill-opacity: 1; white-space: pre; opacity: 1;" transform="translate(0,149.2)">40</text></g><g class="ytick"><text text-anchor="end" x="79" y="4.199999999999999" style="font-family: 'Open Sans', verdana, arial, sans-serif; font-size: 12px; fill: rgb(68, 68, 68); fill-opacity: 1; white-space: pre; opacity: 1;" transform="translate(0,115.97)">60</text></g></g><g class="overaxes-above"/></g><g class="subplot x2y2"><g class="layer-subplot"><g class="shapelayer"/><g class="imagelayer"/></g><g class="gridlayer"><g class="x2"><path class="x2grid crisp" transform="translate(148.07999999999998,0)" d="M0,300v120" style="stroke: rgb(238, 238, 238); stroke-opacity: 1; stroke-width: 1px;"/><path class="x2grid crisp" transform="translate(294.7,0)" d="M0,300v120" style="stroke: rgb(238, 238, 238); stroke-opacity: 1; stroke-width: 1px;"/><path class="x2grid crisp" transform="translate(441.33,0)" d="M0,300v120" style="stroke: rgb(238, 238, 238); stroke-opacity: 1; stroke-width: 1px;"/><path class="x2grid crisp" transform="translate(587.96,0)" d="M0,300v120" style="stroke: rgb(238, 238, 238); stroke-opacity: 1; stroke-width: 1px;"/></g><g class="y2"><path class="y2grid crisp" transform="translate(0,387.40999999999997)" d="M80,0h590" style="stroke: rgb(238, 238, 238); stroke-opacity: 1; stroke-width: 1px;"/><path class="y2grid crisp" transform="translate(0,360.27)" d="M80,0h590" style="stroke: rgb(238, 238, 238); stroke-opacity: 1; stroke-width: 1px;"/><path class="y2grid crisp" transform="translate(0,333.14)" d="M80,0h590" style="stroke: rgb(238, 238, 238); stroke-opacity: 1; stroke-width: 1px;"/><path class="y2grid crisp" transform="translate(0,306)" d="M80,0h590" style="stroke: rgb(238, 238, 238); stroke-opacity: 1; stroke-width: 1px;"/></g></g><g class="zerolinelayer"><path class="y2zl zl crisp" transform="translate(0,414.54)" d="M80,0h590" style="stroke: rgb(68, 68, 68); stroke-opacity: 1; stroke-width: 1px;"/></g><path class="xlines-below"/><path class="ylines-below"/><g class="overlines-below"/><g class="xaxislayer-below"/><g class="yaxislayer-below"/><g class="overaxes-below"/><g class="plot" transform="translate(80,300)" clip-path="url(#clipaf6c8ex2y2plot)"><g class="scatterlayer mlayer"><g class="trace scatter tracead784f" style="stroke-miterlimit: 2; opacity: 1;"><g class="fills"/><g class="errorbars"/><g class="lines"><path class="js-line" d="M0,103.69L0.87,97.72L1.75,100.97L2.62,97.18L3.49,100.97L4.36,100.43L5.24,106.4L6.11,111.83L6.98,111.83L7.86,111.83L8.73,112.91L9.6,112.37L10.47,109.66L11.35,109.12L12.22,101.52L13.09,107.49L13.96,105.32L16.58,102.06L17.46,102.06L18.33,104.23L19.2,100.97L20.07,95.01L20.95,101.52L21.82,81.98L22.69,94.46L23.57,95.01L24.44,97.72L25.31,108.03L26.18,103.69L27.06,112.91L27.93,110.2L28.8,113.46L29.67,111.83L30.55,114L31.42,112.37L33.17,109.12L34.04,96.63L35.78,100.97L36.66,105.86L37.53,109.12L38.4,102.06L39.28,92.29L40.15,96.09L41.02,100.97L41.89,96.63L42.77,100.97L43.64,75.47L44.51,6L45.38,83.61L46.26,103.15L47.13,104.23L48.88,111.83" style="vector-effect: non-scaling-stroke; fill: none; stroke: rgb(255, 127, 14); stroke-opacity: 1; stroke-width: 2px; opacity: 1;"/><path class="js-line" d="M50.62,109.66L51.49,113.46L52.37,108.57L53.24,111.83L54.11,107.49L54.99,108.57L55.86,97.72L56.73,96.63L57.6,81.44L58.48,101.52L59.35,95.55L60.22,95.55L61.09,92.29L61.97,99.35L62.84,97.72L63.71,100.43L64.59,98.26L65.46,91.21L66.33,102.06L67.2,108.57L68.08,106.94L69.82,112.37L70.7,112.37L71.57,112.91L72.44,111.29L73.31,112.37L74.19,106.94L75.06,106.4L75.93,110.2L76.8,102.6L77.68,104.77L78.55,100.97L79.42,101.52L80.3,105.86L81.17,104.23L82.04,104.77L82.91,93.92L84.66,93.38L85.53,97.72L87.28,102.6L88.15,110.2L89.02,106.94L89.9,110.2L91.64,113.46" style="vector-effect: non-scaling-stroke; fill: none; stroke: rgb(255, 127, 14); stroke-opacity: 1; stroke-width: 2px; opacity: 1;"/><path class="js-line" d="M93.39,113.46L94.26,113.46L95.13,109.12L97.75,98.8L98.62,102.06L99.5,93.92L100.37,103.15L101.24,97.72L102.12,106.4L102.99,103.15L103.86,103.15L104.73,100.97L105.61,106.4L107.35,99.89L108.22,105.32L109.1,94.46L109.97,106.94L111.72,114" style="vector-effect: non-scaling-stroke; fill: none; stroke: rgb(255, 127, 14); stroke-opacity: 1; stroke-width: 2px; opacity: 1;"/><path class="js-line" d="M115.21,113.46L116.95,110.74L117.83,103.15L118.7,101.52L119.57,109.12L123.06,104.23L123.93,99.89L124.81,103.15L125.68,95.55L126.55,60.81L127.43,103.15L128.3,96.63L129.17,99.35L131.79,110.2" style="vector-effect: non-scaling-stroke; fill: none; stroke: rgb(255, 127, 14); stroke-opacity: 1; stroke-width: 2px; opacity: 1;"/><path class="js-line" d="M133.54,112.91L135.28,113.46L136.15,112.37L137.9,103.69L138.77,105.32L140.52,99.35L141.39,102.06L142.26,95.55L143.14,104.23L144.01,96.63L144.88,105.86L145.75,92.83L146.63,92.83L148.37,97.72L149.25,89.58L151.86,110.74L152.74,110.74L153.61,111.29L154.48,112.91L155.36,112.37L156.23,113.46L158.85,111.83L159.72,100.43L162.34,86.32L163.21,96.63L164.08,100.97L164.96,85.78L165.83,86.32L166.7,81.98L168.45,95.55L169.32,94.46L170.19,96.09L171.07,102.06L171.94,93.38L172.81,104.77L174.56,110.74L175.43,112.91L176.3,114L177.17,111.29L178.05,108.03L178.92,109.66L179.79,102.6L180.67,103.15L182.41,97.18L183.28,98.26L184.16,98.8L185.03,106.4L185.9,106.4L186.78,102.6L187.65,106.4L188.52,105.32L189.39,104.23L190.27,96.09L191.14,93.92L192.01,97.72L193.76,108.57L194.63,110.74L196.38,113.46L197.25,112.91L198.12,114L198.99,111.29L199.87,103.69L200.74,103.69L201.61,87.41L202.49,91.75L205.1,102.06L205.98,111.83L206.85,106.94L207.72,110.2L209.47,97.18L210.34,103.69L211.21,112.91L212.09,102.06L212.96,103.15L213.83,97.18L214.7,108.03L215.58,104.23L216.45,111.29" style="vector-effect: non-scaling-stroke; fill: none; stroke: rgb(255, 127, 14); stroke-opacity: 1; stroke-width: 2px; opacity: 1;"/><path class="js-line" d="M218.2,114L219.07,113.46L219.94,110.2L220.81,111.29L221.69,110.74L222.56,102.6L223.43,105.86L225.18,102.6L226.05,109.66L227.8,110.74L228.67,103.15L230.41,108.57L231.29,98.8L233.03,100.43L233.91,93.38L236.52,106.94L237.4,109.66L239.14,113.46L240.01,112.37L240.89,110.2L241.76,110.74L242.63,107.49L243.51,100.43L244.38,100.43L245.25,95.55L246.12,104.23L247,100.97L247.87,105.86L248.74,89.04L250.49,99.89L251.36,100.97L253.11,106.94L253.98,99.35L254.85,97.72L255.72,101.52L256.6,103.69L257.47,110.2L258.34,113.46L259.22,111.83L260.09,112.91L260.96,111.83" style="vector-effect: non-scaling-stroke; fill: none; stroke: rgb(255, 127, 14); stroke-opacity: 1; stroke-width: 2px; opacity: 1;"/><path class="js-line" d="M262.71,111.29L264.45,103.15L265.33,102.6L266.2,98.8L267.07,105.32L267.94,93.92L268.82,98.8L269.69,104.23L270.56,104.23L272.31,97.18L273.18,91.75L274.05,92.83L274.93,103.69L275.8,104.23L276.67,95.01L278.42,103.69L279.29,109.66L280.16,112.37" style="vector-effect: non-scaling-stroke; fill: none; stroke: rgb(255, 127, 14); stroke-opacity: 1; stroke-width: 2px; opacity: 1;"/><path class="js-line" d="M282.78,109.66L285.4,107.49L286.27,109.12L287.14,109.12L288.02,96.09L288.89,97.18L289.76,104.23L292.38,98.26L293.25,99.89L294.13,104.23L295,103.69L295.87,103.69L296.75,104.77L297.62,106.4L298.49,109.66L299.36,109.12L300.24,112.37L301.11,111.83L301.98,114L303.73,110.74L304.6,106.4L305.47,109.12L306.35,106.4L307.22,97.72L308.09,106.94L309.84,99.35L310.71,100.43L311.58,107.49L312.46,106.94L315.07,98.26L315.95,98.26L316.82,98.8L317.69,105.32L319.44,103.69L320.31,106.94L321.18,111.29L322.06,110.2L323.8,112.37L324.67,113.46L325.55,103.15L326.42,105.86L327.29,97.18L328.17,101.52L329.91,96.09L330.78,98.26L331.66,104.23L332.53,101.52L333.4,104.77L334.28,93.38L335.15,100.97L336.02,95.55L337.77,105.32L338.64,102.6L340.38,99.35L341.26,104.23L342.13,111.83L343,106.94L343.88,112.37" style="vector-effect: non-scaling-stroke; fill: none; stroke: rgb(255, 127, 14); stroke-opacity: 1; stroke-width: 2px; opacity: 1;"/><path class="js-line" d="M345.62,108.03L346.49,106.4L347.37,106.94L349.11,103.15L349.99,109.66L350.86,100.97L351.73,101.52L352.6,97.18L353.48,99.89L354.35,95.01L355.22,97.18L356.09,99.35L356.97,87.95L357.84,91.21L358.71,98.8L360.46,106.4L361.33,111.83L362.2,113.46L363.08,112.37L363.95,112.37L364.82,114L365.7,113.46L366.57,111.83L367.44,111.29L368.31,108.57L369.19,99.35L370.06,98.8L370.93,106.4L371.8,98.8L372.68,107.49L373.55,102.06L374.42,96.09L375.3,97.18L376.17,104.77L377.04,97.18L378.79,102.06L379.66,97.18L380.53,96.09L381.41,106.4L383.15,103.15L384.02,109.12L384.9,114" style="vector-effect: non-scaling-stroke; fill: none; stroke: rgb(255, 127, 14); stroke-opacity: 1; stroke-width: 2px; opacity: 1;"/><path class="js-line" d="M386.64,112.91L388.39,111.83L389.26,102.6L390.13,103.69L391.01,103.15L391.88,103.69L392.75,102.6L393.62,107.49L394.5,103.15L395.37,101.52L396.24,97.18L397.12,90.12L397.99,97.72L398.86,92.29L399.73,91.75L400.61,87.95L401.48,78.18L403.22,110.74L404.1,108.57L404.97,105.86L405.84,111.29L406.72,99.35L407.59,105.86L408.46,106.4L409.33,100.97L410.21,96.63L411.08,83.61L411.95,79.27L412.83,68.41L413.7,73.3L414.57,89.04L415.44,86.32L416.32,94.46L417.19,96.63L418.06,92.29L418.93,96.63L419.81,91.21L420.68,86.32L421.55,92.83L422.43,93.38L423.3,91.75L425.04,104.77L425.92,105.86L427.66,114L428.54,113.46L431.15,99.89L432.03,87.95L432.9,93.38L433.77,105.32L434.64,85.78L435.52,98.26L436.39,98.8L437.26,96.09L438.14,104.23L439.01,92.29L439.88,89.58L440.75,97.72L441.63,98.8L442.5,93.92L444.25,93.38L445.12,105.86L445.99,103.69L446.86,111.83L448.61,110.74L449.48,113.46L452.1,105.86L452.97,104.77L453.85,94.46L454.72,100.43L455.59,108.03L456.46,93.92L457.34,85.78L458.21,98.8L459.96,94.46L460.83,97.18L462.57,102.06L463.45,102.6L464.32,105.86L465.19,98.26L466.07,106.4L466.94,106.4L467.81,113.46L468.68,113.46L469.56,114L470.43,111.83L472.17,111.83L473.05,103.15L473.92,102.06L474.79,107.49L476.54,104.77L477.41,105.86L478.28,99.35L479.16,100.97L480.03,104.77L480.9,103.15L481.78,104.77L482.65,97.18L484.39,103.69L485.27,103.15L486.14,108.57L487.01,103.69L488.76,114" style="vector-effect: non-scaling-stroke; fill: none; stroke: rgb(255, 127, 14); stroke-opacity: 1; stroke-width: 2px; opacity: 1;"/><path class="js-line" d="M490.5,113.46L492.25,114L493.12,110.74L494.87,105.32L495.74,109.66L497.49,106.4L498.36,107.49L500.1,103.69L500.98,105.86L502.72,103.15L503.59,106.94L504.47,103.69L505.34,104.77L506.21,102.06L507.09,106.94L507.96,110.2L508.83,106.94L511.45,112.91L512.32,112.91L513.2,112.91L514.07,111.29L514.94,111.83L515.81,105.32L516.69,98.8L517.56,100.97L518.43,100.97L519.3,103.69L520.18,107.49L521.05,105.32L521.92,94.46L522.8,96.63L523.67,85.78L524.54,101.52L525.41,99.89L526.29,100.43L527.16,100.43L528.03,102.06L529.78,109.66L530.65,111.83L531.52,113.46L532.4,113.46L533.27,113.46L534.14,112.37L535.01,107.49L535.89,112.91L537.63,100.97L538.51,97.18L539.38,105.86L540.25,102.06L541.12,107.49L542,97.72L542.87,102.06L543.74,98.8L544.62,100.97L545.49,99.89L547.23,91.21L548.11,91.21L551.6,113.46L552.47,111.83L554.22,114L555.09,110.2L556.83,97.72L557.71,96.09L558.58,105.32L559.45,106.4L560.33,103.15L561.2,105.32L562.94,106.94L563.82,105.86L564.69,103.15L565.56,103.69L566.43,104.23L567.31,106.94L569.05,97.72L569.93,101.52L573.42,114L574.29,111.83" style="vector-effect: non-scaling-stroke; fill: none; stroke: rgb(255, 127, 14); stroke-opacity: 1; stroke-width: 2px; opacity: 1;"/><path class="js-line" d="M576.04,108.03L576.91,108.03L577.78,102.6L579.53,98.26L580.4,102.6L581.27,99.89L582.14,102.6L583.02,92.29L583.89,105.32L585.64,97.18L586.51,93.38L588.25,104.23L589.13,105.32L590,102.6" style="vector-effect: non-scaling-stroke; fill: none; stroke: rgb(255, 127, 14); stroke-opacity: 1; stroke-width: 2px; opacity: 1;"/></g><g class="points"/><g class="text"/></g></g></g><g class="overplot"/><path class="xlines-above crisp" d="M0,0" style="fill: none;"/><path class="ylines-above crisp" d="M0,0" style="fill: none;"/><g class="overlines-above"/><g class="xaxislayer-above"><g class="x2tick"><text text-anchor="middle" x="0" y="433" transform="translate(148.07999999999998,0)" style="font-family: 'Open Sans', verdana, arial, sans-serif; font-size: 12px; fill: rgb(68, 68, 68); fill-opacity: 1; white-space: pre; opacity: 1;"><tspan class="line" dy="0em" x="0" y="433">Mar 27</tspan><tspan class="line" dy="1.3em" x="0" y="433">2022</tspan></text></g><g class="x2tick"><text text-anchor="middle" x="0" y="433" style="font-family: 'Open Sans', verdana, arial, sans-serif; font-size: 12px; fill: rgb(68, 68, 68); fill-opacity: 1; white-space: pre; opacity: 1;" transform="translate(294.7,0)">Apr 3</text></g><g class="x2tick"><text text-anchor="middle" x="0" y="433" style="font-family: 'Open Sans', verdana, arial, sans-serif; font-size: 12px; fill: rgb(68, 68, 68); fill-opacity: 1; white-space: pre; opacity: 1;" transform="translate(441.33,0)">Apr 10</text></g><g class="x2tick"><text text-anchor="middle" x="0" y="433" style="font-family: 'Open Sans', verdana, arial, sans-serif; font-size: 12px; fill: rgb(68, 68, 68); fill-opacity: 1; white-space: pre; opacity: 1;" transform="translate(587.96,0)">Apr 17</text></g></g><g class="yaxislayer-above"><g class="y2tick"><text text-anchor="end" x="79" y="4.199999999999999" transform="translate(0,414.54)" style="font-family: 'Open Sans', verdana, arial, sans-serif; font-size: 12px; fill: rgb(68, 68, 68); fill-opacity: 1; white-space: pre; opacity: 1;">0</text></g><g class="y2tick"><text text-anchor="end" x="79" y="4.199999999999999" style="font-family: 'Open Sans', verdana, arial, sans-serif; font-size: 12px; fill: rgb(68, 68, 68); fill-opacity: 1; white-space: pre; opacity: 1;" transform="translate(0,387.40999999999997)">50</text></g><g class="y2tick"><text text-anchor="end" x="79" y="4.199999999999999" style="font-family: 'Open Sans', verdana, arial, sans-serif; font-size: 12px; fill: rgb(68, 68, 68); fill-opacity: 1; white-space: pre; opacity: 1;" transform="translate(0,360.27)">100</text></g><g class="y2tick"><text text-anchor="end" x="79" y="4.199999999999999" style="font-family: 'Open Sans', verdana, arial, sans-serif; font-size: 12px; fill: rgb(68, 68, 68); fill-opacity: 1; white-space: pre; opacity: 1;" transform="translate(0,333.14)">150</text></g><g class="y2tick"><text text-anchor="end" x="79" y="4.199999999999999" style="font-family: 'Open Sans', verdana, arial, sans-serif; font-size: 12px; fill: rgb(68, 68, 68); fill-opacity: 1; white-space: pre; opacity: 1;" transform="translate(0,306)">200</text></g></g><g class="overaxes-above"/></g></g><g class="polarlayer"/><g class="smithlayer"/><g class="ternarylayer"/><g class="geolayer"/><g class="funnelarealayer"/><g class="pielayer"/><g class="iciclelayer"/><g class="treemaplayer"/><g class="sunburstlayer"/><g class="glimages"/><defs id="topdefs-af6c8e"><g class="clips"/></defs><g class="layer-above"><g class="imagelayer"/><g class="shapelayer"/></g><g class="infolayer"><g class="g-gtitle"><text class="gtitle" x="375" y="50" text-anchor="middle" dy="0em" style="font-family: 'Open Sans', verdana, arial, sans-serif; font-size: 17px; fill: rgb(68, 68, 68); opacity: 1; font-weight: normal; white-space: pre;">Number of comments per hour.</text></g><g class="g-xtitle"/><g class="g-x2title"/><g class="g-ytitle"><text class="ytitle" transform="rotate(-90,42,160)" x="42" y="160" text-anchor="middle" style="font-family: 'Open Sans', verdana, arial, sans-serif; font-size: 14px; fill: rgb(68, 68, 68); opacity: 1; font-weight: normal; white-space: pre;">#Comments / Hour</text></g><g class="g-y2title"><text class="y2title" transform="rotate(-90,42,360)" x="42" y="360" text-anchor="middle" style="font-family: 'Open Sans', verdana, arial, sans-serif; font-size: 14px; fill: rgb(68, 68, 68); opacity: 1; font-weight: normal; white-space: pre;">#Comments / Hour</text></g><g class="annotation" data-index="0" style="opacity: 1;"><g class="annotation-text-g" transform="rotate(0,375,87)"><g class="cursor-pointer" transform="translate(348,74)"><rect class="bg" x="0.5" y="0.5" width="53" height="25" style="stroke-width: 1px; stroke: rgb(0, 0, 0); stroke-opacity: 0; fill: rgb(0, 0, 0); fill-opacity: 0;"/><text class="annotation-text" text-anchor="middle" x="27.140625" y="19" style="font-family: 'Open Sans', verdana, arial, sans-serif; font-size: 16px; fill: rgb(68, 68, 68); fill-opacity: 1; white-space: pre;">r/UIUC</text></g></g></g><g class="annotation" data-index="1" style="opacity: 1;"><g class="annotation-text-g" transform="rotate(0,375,287)"><g class="cursor-pointer" transform="translate(340,274)"><rect class="bg" x="0.5" y="0.5" width="70" height="25" style="stroke-width: 1px; stroke: rgb(0, 0, 0); stroke-opacity: 0; fill: rgb(0, 0, 0); fill-opacity: 0;"/><text class="annotation-text" text-anchor="middle" x="35.5" y="19" style="font-family: 'Open Sans', verdana, arial, sans-serif; font-size: 16px; fill: rgb(68, 68, 68); fill-opacity: 1; white-space: pre;">r/Purdue</text></g></g></g></g></svg>